<?xml version="1.0" encoding="UTF-8" standalone="no"?>
<svg
   xmlns:dc="http://purl.org/dc/elements/1.1/"
   xmlns:cc="http://creativecommons.org/ns#"
   xmlns:rdf="http://www.w3.org/1999/02/22-rdf-syntax-ns#"
   xmlns:svg="http://www.w3.org/2000/svg"
   xmlns="http://www.w3.org/2000/svg"
   xmlns:sodipodi="http://sodipodi.sourceforge.net/DTD/sodipodi-0.dtd"
   xmlns:inkscape="http://www.inkscape.org/namespaces/inkscape"
   viewBox="0 0 221.8315 26.264126"
   height="26.264126"
   width="221.8315"
   xml:space="preserve"
   version="1.1"
   id="svg2"
   inkscape:version="0.91 r13725"
   sodipodi:docname="texty_avia_logo.svg"><sodipodi:namedview
     pagecolor="#ffffff"
     bordercolor="#666666"
     borderopacity="1"
     objecttolerance="10"
     gridtolerance="10"
     guidetolerance="10"
     inkscape:pageopacity="0"
     inkscape:pageshadow="2"
     inkscape:window-width="1366"
     inkscape:window-height="705"
     id="namedview33"
     showgrid="false"
     fit-margin-top="20"
     fit-margin-left="0"
     fit-margin-right="0"
     fit-margin-bottom="0"
     inkscape:zoom="1.5200497"
     inkscape:cx="-98.427753"
     inkscape:cy="13.179918"
     inkscape:window-x="-8"
     inkscape:window-y="-8"
     inkscape:window-maximized="1"
     inkscape:current-layer="g4387" /><metadata
     id="metadata8"><rdf:RDF><cc:Work
         rdf:about=""><dc:format>image/svg+xml</dc:format><dc:type
           rdf:resource="http://purl.org/dc/dcmitype/StillImage" /><dc:title /></cc:Work></rdf:RDF></metadata><defs
     id="defs6"><clipPath
       id="clipPath38"
       clipPathUnits="userSpaceOnUse"><path
         id="path40"
         d="m 0,44.476 208.793,0 L 208.793,0 0,0 0,44.476 Z"
         inkscape:connector-curvature="0" /></clipPath></defs><g
     transform="matrix(1.25,0,0,-1.25,-19.78375,40.969375)"
     id="g10"><g
       id="g4387"><g
         id="g14"
         transform="translate(31.585,28.8506)"
         style="fill:#00a5ff;fill-opacity:1"><path
           d="m 0,0 -5.888,0 0,-16.682 -3.953,0 0,16.682 -5.917,0 0,3.521 L 0,3.521 0,0 Z"
           style="fill:#00a5ff;fill-opacity:1;fill-rule:nonzero;stroke:none"
           id="path16"
           inkscape:connector-curvature="0" /></g><g
         id="g18"
         transform="translate(33.0567,32.3721)"
         style="fill:#00a5ff;fill-opacity:1"><path
           d="m 0,0 11.977,0 0,-3.521 -8.023,0 0,-4.705 7.302,0 0,-3.521 -7.302,0 0,-4.935 8.168,0 0,-3.521 L 0,-20.203 0,0 Z"
           style="fill:#00a5ff;fill-opacity:1;fill-rule:nonzero;stroke:none"
           id="path20"
           inkscape:connector-curvature="0" /></g><g
         id="g22"
         transform="translate(52.3076,22.4434)"
         style="fill:#00a5ff;fill-opacity:1"><path
           d="m 0,0 -5.628,9.929 4.762,0 3.117,-5.83 0.692,-2.05 0.664,2.05 3.261,5.83 4.301,0 -5.83,-9.727 6.118,-10.476 -4.704,0 -3.55,6.234 -0.779,2.136 -0.75,-2.136 -3.579,-6.234 -4.3,0 L 0,0 Z"
           style="fill:#00a5ff;fill-opacity:1;fill-rule:nonzero;stroke:none"
           id="path24"
           inkscape:connector-curvature="0" /></g><g
         id="g26"
         transform="translate(79.9551,28.8506)"
         style="fill:#00a5ff;fill-opacity:1"><path
           d="m 0,0 -5.888,0 0,-16.682 -3.953,0 0,16.682 -5.917,0 0,3.521 L 0,3.521 0,0 Z"
           style="fill:#00a5ff;fill-opacity:1;fill-rule:nonzero;stroke:none"
           id="path28"
           inkscape:connector-curvature="0" /></g><g
         id="g30"
         transform="translate(87.7197,19.6729)"
         style="fill:#00a5ff;fill-opacity:1"><path
           d="m 0,0 -6.638,12.699 4.704,0 3.695,-7.591 0.404,-2.135 0.145,0 0.432,2.193 3.579,7.533 4.242,0 -6.609,-12.67 0,-7.533 L 0,-7.504 0,0 Z"
           style="fill:#00a5ff;fill-opacity:1;fill-rule:nonzero;stroke:none"
           id="path32"
           inkscape:connector-curvature="0" /></g><g
         id="g42"
         transform="translate(95.4541,14.0742)"
         style="fill:#88888e;fill-opacity:1"><path
           d="M 0,0 C 0,0.673 0.212,1.207 0.635,1.602 1.059,1.995 1.616,2.193 2.31,2.193 3.04,2.193 3.617,1.995 4.041,1.602 4.464,1.207 4.676,0.673 4.676,0 4.676,-0.674 4.464,-1.213 4.041,-1.616 3.617,-2.021 3.04,-2.223 2.31,-2.223 1.616,-2.223 1.059,-2.021 0.635,-1.616 0.212,-1.213 0,-0.674 0,0"
           style="fill:#88888e;fill-opacity:1;fill-rule:nonzero;stroke:none"
           id="path44"
           inkscape:connector-curvature="0" /></g><g
         id="g46"
         transform="translate(106.0176,22.2705)"
         style="fill:#88888e;fill-opacity:1"><path
           d="m 0,0 c 0,-1.021 0.086,-1.958 0.26,-2.814 0.173,-0.857 0.437,-1.592 0.793,-2.208 0.356,-0.616 0.813,-1.097 1.371,-1.443 0.558,-0.347 1.221,-0.519 1.992,-0.519 1.403,0 2.491,0.547 3.261,1.644 0.769,1.097 1.154,2.877 1.154,5.34 0,0.981 -0.082,1.895 -0.245,2.741 C 8.422,3.588 8.167,4.329 7.821,4.964 7.475,5.599 7.022,6.094 6.465,6.45 5.906,6.806 5.224,6.984 4.416,6.984 3.011,6.984 1.924,6.422 1.154,5.296 0.385,4.17 0,2.404 0,0 m -4.156,0 c 0,3.366 0.74,5.96 2.222,7.778 1.482,1.818 3.598,2.727 6.35,2.727 1.442,0 2.702,-0.25 3.78,-0.75 1.077,-0.501 1.972,-1.212 2.685,-2.136 0.711,-0.924 1.24,-2.03 1.587,-3.319 0.346,-1.289 0.519,-2.723 0.519,-4.3 0,-3.367 -0.746,-5.96 -2.236,-7.778 -1.492,-1.819 -3.604,-2.728 -6.335,-2.728 -1.463,0 -2.732,0.251 -3.811,0.751 -1.077,0.5 -1.966,1.212 -2.669,2.136 -0.703,0.923 -1.226,2.029 -1.573,3.318 -0.346,1.289 -0.519,2.723 -0.519,4.301"
           style="fill:#88888e;fill-opacity:1;fill-rule:nonzero;stroke:none"
           id="path48"
           inkscape:connector-curvature="0" /></g><g
         id="g50"
         transform="translate(127.3174,29.1397)"
         style="fill:#88888e;fill-opacity:1"><path
           d="m 0,0 c -0.404,0 -0.804,-0.011 -1.198,-0.029 -0.395,-0.02 -0.697,-0.058 -0.909,-0.116 l 0,-5.859 1.673,0 c 1.097,0 1.973,0.25 2.627,0.751 0.654,0.5 0.981,1.327 0.981,2.482 0,0.866 -0.27,1.544 -0.808,2.035 C 1.827,-0.246 1.038,0 0,0 m -6.061,3.03 c 0.442,0.076 0.918,0.149 1.428,0.216 0.51,0.068 1.02,0.12 1.529,0.159 0.51,0.038 1.006,0.068 1.488,0.087 0.48,0.019 0.923,0.029 1.327,0.029 0.942,0 1.871,-0.086 2.785,-0.26 C 3.409,3.088 4.228,2.789 4.949,2.366 5.671,1.942 6.248,1.36 6.681,0.62 7.114,-0.121 7.33,-1.049 7.33,-2.165 7.33,-3.82 6.945,-5.167 6.176,-6.205 5.406,-7.244 4.377,-7.966 3.088,-8.37 l 1.414,-0.895 4.618,-7.706 -4.56,0 -4.589,7.908 -2.078,0.375 0,-8.283 -3.954,0 0,20.001 z"
           style="fill:#88888e;fill-opacity:1;fill-rule:nonzero;stroke:none"
           id="path52"
           inkscape:connector-curvature="0" /></g><g
         id="g54"
         transform="translate(144.2295,22.7032)"
         style="fill:#88888e;fill-opacity:1"><path
           d="m 0,0 7.533,0 0,-9.005 c -0.808,-0.674 -1.775,-1.164 -2.901,-1.472 -1.125,-0.307 -2.237,-0.462 -3.333,-0.462 -1.289,0 -2.488,0.203 -3.594,0.607 -1.106,0.404 -2.063,1.034 -2.871,1.891 -0.809,0.855 -1.443,1.948 -1.905,3.275 -0.462,1.327 -0.693,2.905 -0.693,4.733 0,1.905 0.275,3.526 0.823,4.864 0.548,1.337 1.27,2.423 2.165,3.26 0.894,0.837 1.899,1.444 3.015,1.819 1.116,0.375 2.251,0.562 3.406,0.562 1.155,0 2.169,-0.086 3.044,-0.259 C 5.565,9.64 6.263,9.457 6.782,9.265 L 5.975,5.945 C 5.493,6.138 4.954,6.287 4.358,6.393 3.762,6.498 3.002,6.552 2.078,6.552 1.251,6.552 0.49,6.426 -0.202,6.177 -0.895,5.926 -1.496,5.518 -2.006,4.95 -2.516,4.382 -2.91,3.655 -3.189,2.77 -3.469,1.886 -3.607,0.809 -3.607,-0.462 c 0,-1.212 0.133,-2.256 0.404,-3.131 0.268,-0.876 0.643,-1.598 1.125,-2.165 0.48,-0.567 1.044,-0.986 1.688,-1.255 0.645,-0.27 1.332,-0.404 2.064,-0.404 0.5,0 0.991,0.062 1.471,0.187 0.482,0.125 0.885,0.313 1.213,0.563 l 0,3.81 L 0,-2.396 0,0 Z"
           style="fill:#88888e;fill-opacity:1;fill-rule:nonzero;stroke:none"
           id="path56"
           inkscape:connector-curvature="0" /></g><g
         id="g58"
         transform="translate(153.5801,14.0742)"
         style="fill:#88888e;fill-opacity:1"><path
           d="M 0,0 C 0,0.673 0.212,1.207 0.635,1.602 1.059,1.995 1.616,2.193 2.31,2.193 3.04,2.193 3.617,1.995 4.041,1.602 4.464,1.207 4.676,0.673 4.676,0 4.676,-0.674 4.464,-1.213 4.041,-1.616 3.617,-2.021 3.04,-2.223 2.31,-2.223 1.616,-2.223 1.059,-2.021 0.635,-1.616 0.212,-1.213 0,-0.674 0,0"
           style="fill:#88888e;fill-opacity:1;fill-rule:nonzero;stroke:none"
           id="path60"
           inkscape:connector-curvature="0" /></g><g
         id="g62"
         transform="translate(171.5889,32.3721)"
         style="fill:#88888e;fill-opacity:1"><path
           d="m 0,0 3.752,0 0,-13.046 c 0,-1.309 -0.174,-2.434 -0.52,-3.376 -0.346,-0.943 -0.828,-1.723 -1.443,-2.338 -0.616,-0.616 -1.366,-1.068 -2.251,-1.356 -0.886,-0.289 -1.857,-0.434 -2.915,-0.434 -5.118,0 -7.677,2.338 -7.677,7.014 l 0,13.536 3.953,0 0,-12.757 c 0,-0.789 0.073,-1.458 0.217,-2.006 0.145,-0.548 0.37,-0.991 0.679,-1.328 0.308,-0.337 0.692,-0.577 1.154,-0.72 0.462,-0.145 1,-0.217 1.616,-0.217 1.212,0 2.087,0.336 2.626,1.009 C -0.27,-15.345 0,-14.258 0,-12.757 L 0,0 Z"
           style="fill:#88888e;fill-opacity:1;fill-rule:nonzero;stroke:none"
           id="path64"
           inkscape:connector-curvature="0" /></g><g
         id="g66"
         transform="translate(182.3252,19.8174)"
         style="fill:#88888e;fill-opacity:1"><path
           d="M 0,0 4.329,0 2.828,4.502 2.222,7.677 2.077,7.677 1.472,4.474 0,0 Z m 5.194,-3.175 -6.205,0 -1.529,-4.473 -3.954,0 7.273,20.346 2.914,0 7.274,-20.346 -4.156,0 -1.617,4.473 z"
           style="fill:#88888e;fill-opacity:1;fill-rule:nonzero;stroke:none"
           id="path68"
           inkscape:connector-curvature="0" /></g></g></g></svg>